<?xml version="1.0" encoding="UTF-8"?>
<svg version="1.1" xmlns="http://www.w3.org/2000/svg" width="512" height="512">
<path d="M0 0 C4.08074581 2.88052646 7.51700465 6.24643475 10.94140625 9.87109375 C12.89009648 11.82603981 14.85015604 13.6026069 16.94371033 15.39276123 C21.72577032 19.56157188 26.21738711 23.99243959 30.70922852 28.46972656 C31.60623474 29.36016159 32.50324097 30.25059662 33.4274292 31.16801453 C36.37309576 34.09286837 39.31363725 37.0228469 42.25390625 39.953125 C43.27403172 40.96919541 44.29418816 41.98523473 45.31437492 43.00124359 C50.10686286 47.77473585 54.89697261 52.55059882 59.68415505 57.32941175 C65.18096637 62.81644917 70.68596375 68.29509912 76.19804245 73.76679826 C80.47968086 78.01815871 84.75350194 82.27727905 89.02167839 86.54215407 C91.56165261 89.07979277 94.10473322 91.61410849 96.65619087 94.14020538 C99.50543512 96.96157643 102.33829051 99.79889111 105.17016602 102.63769531 C106.00204941 103.45676865 106.8339328 104.27584198 107.69102478 105.11973572 C117.73562165 115.25368672 124.16788879 125.79400417 124.375 140.3125 C123.609245 151.04725065 120.07550007 160.61199993 112.375 168.3125 C101.35609107 177.29804261 91.50882066 179.51266597 77.52978516 178.56689453 C64.19265709 176.9923095 55.43928738 166.53451634 46.5 157.53515625 C45.28509888 156.31813271 45.28509888 156.31813271 44.0456543 155.07652283 C41.48638985 152.51170861 38.9306447 149.94342052 36.375 147.375 C34.62913867 145.62411717 32.88304713 143.87346387 31.13671875 142.12304688 C26.88014802 137.85551384 22.62645284 133.58513134 18.375 129.3125 C18.37353479 130.37007895 18.37353479 130.37007895 18.37203997 131.44902313 C18.31375771 173.24369006 18.23995316 215.03830451 18.14601372 256.83290725 C18.13474566 261.85214625 18.12360719 266.87138553 18.11254883 271.890625 C18.11034514 272.88985784 18.10814146 273.88909069 18.105871 274.91860332 C18.07050643 291.09432203 18.04563755 307.27004069 18.02465298 323.44578372 C18.00288425 340.0457451 17.9698236 356.64565634 17.92629844 373.24557507 C17.89980025 383.48716268 17.88209137 393.72868783 17.87565396 403.97030802 C17.87039449 410.99503434 17.85415867 418.01968208 17.82933434 425.04436629 C17.81533857 429.09617657 17.80614134 433.14784627 17.80999184 437.19968224 C17.81341402 440.91350786 17.80296889 444.62703375 17.78176448 448.34079804 C17.77404208 450.3117493 17.78091956 452.28274133 17.78841704 454.25369346 C17.69135242 466.4358385 14.94148381 477.20220801 6.48828125 486.35546875 C-2.89170005 494.99831989 -13.1879252 497.82457416 -25.8359375 497.625 C-35.61077705 496.81882767 -44.82019089 492.35517094 -51.59765625 485.2421875 C-58.20705348 477.18742314 -61.73623556 468.9317501 -61.7636652 458.48105907 C-61.76913964 457.30764971 -61.77461409 456.13424034 -61.78025442 454.92527312 C-61.78123253 453.6402606 -61.78221064 452.35524807 -61.78321838 451.03129578 C-61.7877857 449.64929572 -61.79278597 448.26729705 -61.79818195 446.88529998 C-61.81175312 443.08847408 -61.81917846 439.29165712 -61.82560861 435.49481332 C-61.83361703 431.4001011 -61.84731329 427.30540746 -61.86032104 423.21070862 C-61.88207751 416.1166155 -61.90022504 409.02252049 -61.91592598 401.92841148 C-61.93863215 391.67150277 -61.96677396 381.41461465 -61.99624526 371.1577234 C-62.04391199 354.5168605 -62.08717867 337.87598918 -62.12768555 321.23510742 C-62.16704514 305.06941065 -62.20847249 288.90372136 -62.25268555 272.73803711 C-62.25540982 271.7416942 -62.25813409 270.7453513 -62.26094092 269.71881618 C-62.27462047 264.72048946 -62.28834073 259.72216286 -62.30208123 254.7238363 C-62.41603158 213.25340646 -62.52284413 171.78296047 -62.625 130.3125 C-63.083302 130.77524323 -63.541604 131.23798645 -64.01379395 131.7147522 C-68.80999779 136.55540381 -73.61338624 141.38884142 -78.42089844 146.21826172 C-80.21114124 148.01852575 -81.99958033 149.82058542 -83.78613281 151.62451172 C-86.36304488 154.22584269 -88.94649991 156.82052223 -91.53125 159.4140625 C-92.32116333 160.2142984 -93.11107666 161.0145343 -93.92492676 161.83901978 C-105.46062094 173.3770063 -115.19230471 179.57441253 -131.69238281 179.63378906 C-141.907299 179.48157324 -149.74136617 175.84730284 -157.25 168.875 C-166.83286813 158.53558965 -169.11668213 149.67987359 -168.91015625 135.8203125 C-168.6863381 130.38794239 -167.33054123 126.02598646 -164.625 121.3125 C-164.068125 120.3225 -163.51125 119.3325 -162.9375 118.3125 C-156.48826399 109.94592355 -148.94390276 102.47956522 -141.49047852 95.0168457 C-140.51012901 94.03185209 -139.52997125 93.04666761 -138.54998779 92.06130981 C-135.91811518 89.4164752 -133.2830545 86.77484125 -130.64693189 84.13424325 C-128.99421569 82.47857337 -127.34207857 80.8223277 -125.69010735 79.16591454 C-120.50360634 73.96578914 -115.31514426 68.76763253 -110.12376839 63.57237369 C-104.16237338 57.60649264 -98.20758981 51.63411444 -92.25842911 45.65603381 C-87.6350132 41.01093476 -83.00578366 36.37168136 -78.3721804 31.73674458 C-75.61514932 28.9786714 -72.86054217 26.21828246 -70.11200142 23.45174599 C-67.52728919 20.85043472 -64.93536175 18.25652694 -62.33798218 15.66786575 C-60.946566 14.27757409 -59.56252498 12.87991316 -58.17881775 11.48194885 C-41.37305696 -5.21377528 -21.81159085 -13.52393975 0 0 Z " fill="#000000" transform="translate(168.625,10.6875)"/>
<path d="M0 0 C10.05615648 7.21573333 15.89170457 15.98214076 18.1875 28.125 C18.58991299 32.79726233 18.60415453 37.44018237 18.58622742 42.12773132 C18.59167706 43.5149138 18.59843283 44.90209164 18.60636932 46.28926212 C18.62428684 50.07258988 18.62385092 53.85572029 18.62023985 57.63908041 C18.61961333 61.72961832 18.636261 65.82009154 18.65075684 69.91059875 C18.67349931 76.98822707 18.68542042 84.06580631 18.68988609 91.14346886 C18.69635842 101.37643034 18.71931482 111.60930327 18.74622939 121.84222899 C18.78945705 138.44648328 18.81944675 155.05073384 18.84106445 171.6550293 C18.8620862 187.77972245 18.88937174 203.90438506 18.92504883 220.02905273 C18.92724765 221.0238193 18.92944648 222.01858586 18.93171193 223.04349687 C18.94278189 228.03419992 18.95397464 233.02490269 18.96522844 238.01560533 C19.05835659 279.38537672 19.12998094 320.75516476 19.1875 362.125 C19.93679779 361.35571671 19.93679779 361.35571671 20.70123291 360.57089233 C25.45000727 355.70106444 30.21378161 350.8463528 34.99411392 346.00751305 C37.45028798 343.52024637 39.90065923 341.02781493 42.33789062 338.52197266 C45.15087816 335.63031403 47.98872889 332.76417118 50.828125 329.8984375 C51.68488831 329.01070648 52.54165161 328.12297546 53.42437744 327.20834351 C63.22517054 317.40226259 73.17240638 312.83611703 86.90429688 312.80810547 C98.89646381 313.02747438 107.70127356 318.27744915 115.875 326.75 C123.87005479 336.50543383 125.38539197 346.85977684 124.42675781 359.0703125 C122.79275045 373.10276756 112.07600846 382.53977655 102.60913086 392.04150391 C101.5565678 393.10498784 100.50438337 394.16884663 99.45254517 395.23304749 C96.61629873 398.09955315 93.77354413 400.95951066 90.92851329 403.81729555 C89.14512179 405.60881738 87.36276143 407.40135936 85.58065987 409.19416428 C79.98665827 414.82081129 74.3883116 420.4430858 68.78408712 426.05955088 C62.34724271 432.51064464 55.9254915 438.97628353 49.51629537 445.45484412 C44.53817766 450.48494513 39.54649766 455.50132888 34.54463869 460.50782144 C31.5678238 463.48801369 28.59686523 466.47350543 25.64011955 469.47362137 C22.8557262 472.29814515 20.05466715 475.10506637 17.24071121 477.90012932 C16.21969389 478.91989433 15.20447174 479.94550596 14.19608879 480.97776604 C4.37743944 491.01521267 -6.56840823 498.19796807 -20.9375 498.375 C-38.7177118 498.30644979 -48.98863779 488.41208738 -61.0637207 476.27783203 C-62.13873289 475.20853827 -63.21436929 474.13987175 -64.29057312 473.07177734 C-67.18159867 470.19852998 -70.06316575 467.31597763 -72.94244409 464.43096399 C-75.35759766 462.01269797 -77.77736081 459.59907014 -80.1970765 457.18537033 C-85.90814759 451.48829075 -91.61145331 445.78352078 -97.30981445 440.07373047 C-103.16885089 434.20320187 -109.04057799 428.3455923 -114.91873103 422.49421036 C-119.98701993 417.44813312 -125.04745274 412.3942712 -130.10171765 407.33414733 C-133.11104862 404.32146064 -136.12313892 401.3116798 -139.14278603 398.30932999 C-141.98121857 395.48645333 -144.80963585 392.65389838 -147.63092232 389.81388855 C-148.66180721 388.77934247 -149.69604081 387.74811961 -150.7340126 386.72068405 C-161.25295228 376.30033041 -167.91005128 366.67379677 -168.8359375 351.63671875 C-168.75923654 340.14435796 -164.86315113 331.66839758 -157.25 323.3125 C-156.445625 322.590625 -155.64125 321.86875 -154.8125 321.125 C-154.07 320.444375 -153.3275 319.76375 -152.5625 319.0625 C-142.84121923 312.21341582 -132.39688435 311.08271781 -120.8125 312.125 C-108.72072735 314.69615457 -100.70529185 322.93258733 -92.28125 331.4609375 C-91.40472778 332.34028961 -90.52820557 333.21964172 -89.62512207 334.12564087 C-86.84948298 336.91240061 -84.08091154 339.70606205 -81.3125 342.5 C-79.42290796 344.40077018 -77.53172069 346.29994358 -75.640625 348.19921875 C-71.02592236 352.83587402 -66.41698938 357.47820335 -61.8125 362.125 C-61.81152319 361.41994737 -61.81054638 360.71489474 -61.80953997 359.98847687 C-61.75125771 318.19380994 -61.67745316 276.39919549 -61.58351372 234.60459275 C-61.57224566 229.58535375 -61.56110719 224.56611447 -61.55004883 219.546875 C-61.54784514 218.54764216 -61.54564146 217.54840931 -61.543371 216.51889668 C-61.50800643 200.34317797 -61.48313755 184.16745931 -61.46215298 167.99171628 C-61.44038425 151.3917549 -61.4073236 134.79184366 -61.36379844 118.19192493 C-61.33730025 107.95033732 -61.31959137 97.70881217 -61.31315396 87.46719198 C-61.30789449 80.44246566 -61.29165867 73.41781792 -61.26683434 66.39313371 C-61.25283857 62.34132343 -61.24364134 58.28965373 -61.24749184 54.23781776 C-61.25091402 50.52399214 -61.24046889 46.81046625 -61.21926448 43.09670196 C-61.21154208 41.1257507 -61.21841956 39.15475867 -61.22591704 37.18380654 C-61.13950053 26.33805846 -59.12582494 17.98755394 -52.8125 9.125 C-52.235 8.25875 -51.6575 7.3925 -51.0625 6.5 C-37.82625894 -7.47158779 -16.22168143 -10.36904843 0 0 Z " fill="#000000" transform="translate(387.8125,9.875)"/>
</svg>
